<svg xmlns="http://www.w3.org/2000/svg" viewBox="0 0 500 500"><g id="background-complete"><rect y="382.4" width="500" height="0.25" style="fill:#ebebeb"></rect><rect x="416.78" y="398.49" width="33.12" height="0.25" style="fill:#ebebeb"></rect><rect x="322.53" y="401.21" width="8.69" height="0.25" style="fill:#ebebeb"></rect><rect x="396.59" y="389.21" width="19.19" height="0.25" style="fill:#ebebeb"></rect><rect x="52.46" y="390.89" width="43.19" height="0.25" style="fill:#ebebeb"></rect><rect x="104.56" y="390.89" width="6.33" height="0.25" style="fill:#ebebeb"></rect><rect x="131.47" y="395.11" width="93.68" height="0.25" style="fill:#ebebeb"></rect><path d="M237,337.8H43.91a5.71,5.71,0,0,1-5.7-5.71V60.66A5.71,5.71,0,0,1,43.91,55H237a5.71,5.71,0,0,1,5.71,5.71V332.09A5.71,5.71,0,0,1,237,337.8ZM43.91,55.2a5.46,5.46,0,0,0-5.45,5.46V332.09a5.46,5.46,0,0,0,5.45,5.46H237a5.47,5.47,0,0,0,5.46-5.46V60.66A5.47,5.47,0,0,0,237,55.2Z" style="fill:#ebebeb"></path><path d="M453.31,337.8H260.21a5.72,5.72,0,0,1-5.71-5.71V60.66A5.72,5.72,0,0,1,260.21,55h193.1A5.71,5.71,0,0,1,459,60.66V332.09A5.71,5.71,0,0,1,453.31,337.8ZM260.21,55.2a5.47,5.47,0,0,0-5.46,5.46V332.09a5.47,5.47,0,0,0,5.46,5.46h193.1a5.47,5.47,0,0,0,5.46-5.46V60.66a5.47,5.47,0,0,0-5.46-5.46Z" style="fill:#ebebeb"></path><rect x="116.56" y="103.33" width="115.56" height="279.07" style="fill:#f5f5f5"></rect><polygon points="194.07 103.33 176.25 103.33 135.45 382.4 153.27 382.4 194.07 103.33" style="fill:#fafafa"></polygon><polygon points="209.87 103.33 200.96 103.33 160.16 382.4 169.07 382.4 209.87 103.33" style="fill:#fafafa"></polygon><rect x="232.12" y="103.33" width="1.33" height="279.07" transform="translate(465.56 485.73) rotate(180)" style="fill:#ebebeb"></rect><polygon points="292.71 382.4 299.02 79.89 280.97 79.89 280.97 82.42 290.67 111.75 287.44 382.4 292.71 382.4" style="fill:#e6e6e6"></polygon><polygon points="300.38 382.4 300.38 79.89 285.63 79.89 295.33 109.22 292.1 382.4 300.38 382.4" style="fill:#e0e0e0"></polygon><path d="M418.35,91.44h-119a2.5,2.5,0,0,1-2.5-2.5h0a2.51,2.51,0,0,1,2.5-2.5h119a2.51,2.51,0,0,1,2.5,2.5h0A2.51,2.51,0,0,1,418.35,91.44Z" style="fill:#f0f0f0"></path><path d="M418.35,110.57h-119a2.51,2.51,0,0,1-2.5-2.5h0a2.5,2.5,0,0,1,2.5-2.5h119a2.51,2.51,0,0,1,2.5,2.5h0A2.51,2.51,0,0,1,418.35,110.57Z" style="fill:#f0f0f0"></path><path d="M418.35,129.69h-119a2.51,2.51,0,0,1-2.5-2.5h0a2.5,2.5,0,0,1,2.5-2.5h119a2.51,2.51,0,0,1,2.5,2.5h0A2.51,2.51,0,0,1,418.35,129.69Z" style="fill:#f0f0f0"></path><rect x="296.85" y="143.81" width="124" height="5" rx="2.5" style="fill:#f0f0f0"></rect><path d="M418.35,167.93h-119a2.51,2.51,0,0,1-2.5-2.5h0a2.5,2.5,0,0,1,2.5-2.5h119a2.51,2.51,0,0,1,2.5,2.5h0A2.51,2.51,0,0,1,418.35,167.93Z" style="fill:#f0f0f0"></path><path d="M418.35,187.05h-119a2.5,2.5,0,0,1-2.5-2.5h0a2.51,2.51,0,0,1,2.5-2.5h119a2.51,2.51,0,0,1,2.5,2.5h0A2.51,2.51,0,0,1,418.35,187.05Z" style="fill:#f0f0f0"></path><path d="M418.35,206.17h-119a2.5,2.5,0,0,1-2.5-2.5h0a2.51,2.51,0,0,1,2.5-2.5h119a2.51,2.51,0,0,1,2.5,2.5h0A2.51,2.51,0,0,1,418.35,206.17Z" style="fill:#f0f0f0"></path><path d="M418.35,225.29h-119a2.5,2.5,0,0,1-2.5-2.5h0a2.51,2.51,0,0,1,2.5-2.5h119a2.51,2.51,0,0,1,2.5,2.5h0A2.51,2.51,0,0,1,418.35,225.29Z" style="fill:#f0f0f0"></path><path d="M418.35,244.42h-119a2.51,2.51,0,0,1-2.5-2.5h0a2.5,2.5,0,0,1,2.5-2.5h119a2.51,2.51,0,0,1,2.5,2.5h0A2.51,2.51,0,0,1,418.35,244.42Z" style="fill:#f0f0f0"></path><path d="M418.35,263.54h-119a2.51,2.51,0,0,1-2.5-2.5h0a2.5,2.5,0,0,1,2.5-2.5h119a2.51,2.51,0,0,1,2.5,2.5h0A2.51,2.51,0,0,1,418.35,263.54Z" style="fill:#f0f0f0"></path><path d="M418.35,282.66h-119a2.51,2.51,0,0,1-2.5-2.5h0a2.5,2.5,0,0,1,2.5-2.5h119a2.51,2.51,0,0,1,2.5,2.5h0A2.51,2.51,0,0,1,418.35,282.66Z" style="fill:#f0f0f0"></path><path d="M418.35,301.78h-119a2.51,2.51,0,0,1-2.5-2.5h0a2.5,2.5,0,0,1,2.5-2.5h119a2.51,2.51,0,0,1,2.5,2.5h0A2.51,2.51,0,0,1,418.35,301.78Z" style="fill:#f0f0f0"></path><path d="M418.35,320.9h-119a2.5,2.5,0,0,1-2.5-2.5h0a2.51,2.51,0,0,1,2.5-2.5h119a2.51,2.51,0,0,1,2.5,2.5h0A2.51,2.51,0,0,1,418.35,320.9Z" style="fill:#f0f0f0"></path><path d="M418.35,340h-119a2.5,2.5,0,0,1-2.5-2.5h0a2.51,2.51,0,0,1,2.5-2.5h119a2.51,2.51,0,0,1,2.5,2.5h0A2.51,2.51,0,0,1,418.35,340Z" style="fill:#f0f0f0"></path><path d="M418.35,359.14h-119a2.5,2.5,0,0,1-2.5-2.5h0a2.51,2.51,0,0,1,2.5-2.5h119a2.51,2.51,0,0,1,2.5,2.5h0A2.51,2.51,0,0,1,418.35,359.14Z" style="fill:#f0f0f0"></path><path d="M418.35,378.26h-119a2.5,2.5,0,0,1-2.5-2.5h0a2.51,2.51,0,0,1,2.5-2.5h119a2.51,2.51,0,0,1,2.5,2.5h0A2.51,2.51,0,0,1,418.35,378.26Z" style="fill:#f0f0f0"></path><polygon points="423.01 382.4 422.24 79.89 404.18 79.89 404.18 82.42 413.88 111.75 410.65 382.4 423.01 382.4" style="fill:#e0e0e0"></polygon><polygon points="423.6 382.4 423.6 79.89 408.85 79.89 418.54 109.22 415.31 382.4 423.6 382.4" style="fill:#f5f5f5"></polygon><rect x="55.53" y="149.67" width="46.68" height="70.3" style="fill:#e0e0e0"></rect><rect x="51.4" y="149.67" width="49.78" height="70.3" style="fill:#f0f0f0"></rect><rect x="46.94" y="165.74" width="58.68" height="38.15" transform="translate(261.11 108.53) rotate(90)" style="fill:#fafafa"></rect><path d="M91,166.26a5.3,5.3,0,1,1-5.3-5.3A5.29,5.29,0,0,1,91,166.26Z" style="fill:#f0f0f0"></path><rect x="61.57" y="179.49" width="29.44" height="21.21" style="fill:#f0f0f0"></rect><rect x="61.57" y="204.22" width="29.44" height="5.01" style="fill:#f0f0f0"></rect></g><g id="background-simple"><path d="M363.08,237c2.18-30.29-15.09-69.89-41.95-84.06-29.67-15.65-61.63,4.57-89.82-12.5-28.67-17.35-36.55-51.12-76.93-27.28-31.13,18.37-26.33,50.2-22,80.94,7.77,55.2,35.61,155.82,103.4,164.31C313,368.08,358.18,304.89,363.08,237Z" style="fill:#092C6A"></path><path d="M363.08,237c2.18-30.29-15.09-69.89-41.95-84.06-29.67-15.65-61.63,4.57-89.82-12.5-28.67-17.35-36.55-51.12-76.93-27.28-31.13,18.37-26.33,50.2-22,80.94,7.77,55.2,35.61,155.82,103.4,164.31C313,368.08,358.18,304.89,363.08,237Z" style="fill:#fff;opacity:0.9"></path></g><g id="Shadow"><ellipse id="path" cx="250" cy="416.24" rx="193.89" ry="11.32" style="fill:#f5f5f5"></ellipse></g><g id="Weights"><path d="M352.62,416.24a14.19,14.19,0,1,0,0-28.37h-2.15v28.37Z" style="fill:#092C6A"></path><path d="M352.62,416.24a14.19,14.19,0,1,0,0-28.37h-2.15v28.37Z" style="opacity:0.2"></path><circle cx="350.47" cy="402.05" r="14.18" transform="translate(-83 91.28) rotate(-13.28)" style="fill:#092C6A"></circle><path d="M352.62,387.87h-2.15a14.19,14.19,0,1,0,0,28.37h2.15a14.19,14.19,0,1,0,0-28.37Z" style="opacity:0.30000000000000004"></path><path d="M347.61,404.9H322.38v-5.7h25.23a2.86,2.86,0,0,1,2.86,2.85h0A2.85,2.85,0,0,1,347.61,404.9Z" style="fill:#092C6A"></path><path d="M325.1,416.24a14.19,14.19,0,0,0,0-28.37h-2.16v28.37Z" style="fill:#092C6A"></path><path d="M325.1,416.24a14.19,14.19,0,0,0,0-28.37h-2.16v28.37Z" style="opacity:0.2"></path><circle cx="322.94" cy="402.05" r="14.18" transform="matrix(0.99, -0.16, 0.16, 0.99, -60.23, 56.92)" style="fill:#092C6A"></circle><path d="M323.5,409.44a7.39,7.39,0,1,0,0-14.77h-1.12v14.77Z" style="fill:#092C6A"></path><path d="M323.5,409.44a7.39,7.39,0,1,0,0-14.77h-1.12v14.77Z" style="opacity:0.2"></path><circle cx="322.38" cy="402.05" r="7.39" style="fill:#092C6A"></circle><path d="M383.85,416.24a9.48,9.48,0,0,0,0-19h-1.44v19Z" style="fill:#092C6A"></path><path d="M383.85,416.24a9.48,9.48,0,0,0,0-19h-1.44v19Z" style="opacity:0.2"></path><circle cx="382.41" cy="406.76" r="9.48" style="fill:#092C6A"></circle><path d="M383.85,397.28h-1.44a9.48,9.48,0,0,0,0,19h1.44a9.48,9.48,0,0,0,0-19Z" style="opacity:0.30000000000000004"></path><path d="M380.51,408.66H363.64v-3.81h16.87a1.91,1.91,0,0,1,1.9,1.91h0A1.9,1.9,0,0,1,380.51,408.66Z" style="fill:#092C6A"></path><path d="M365.46,416.24a9.48,9.48,0,1,0,0-19H364v19Z" style="fill:#092C6A"></path><path d="M365.46,416.24a9.48,9.48,0,1,0,0-19H364v19Z" style="opacity:0.2"></path><circle cx="364.02" cy="406.76" r="9.48" style="fill:#092C6A"></circle><path d="M364.39,411.69a4.94,4.94,0,1,0,0-9.87h-.75v9.87Z" style="fill:#092C6A"></path><path d="M364.39,411.69a4.94,4.94,0,1,0,0-9.87h-.75v9.87Z" style="opacity:0.2"></path><path d="M368.58,406.76a4.94,4.94,0,1,0-4.94,4.93A4.94,4.94,0,0,0,368.58,406.76Z" style="fill:#092C6A"></path><path d="M181.44,403.91a15.36,15.36,0,0,1-4.26,10.63,55.33,55.33,0,0,1-22.25,0,15.38,15.38,0,1,1,26.51-10.63Z" style="fill:#092C6A"></path><path d="M155.44,395.12c-.24-.25-5.92-6.27-5.92-12.16,0-9.07,11.27-9.07,16.09-9.07s16.09,0,16.09,9.07c0,5.89-5.69,11.91-5.93,12.16l-2.89-2.76,1.44,1.38-1.44-1.38c1.34-1.41,4.82-5.85,4.82-9.4,0-4.21-4.84-5.07-12.09-5.07s-12.09.86-12.09,5.07c0,3.57,3.47,8,4.81,9.4Z" style="fill:#092C6A"></path><path d="M171.62,403.28a6,6,0,1,1-6-6A6,6,0,0,1,171.62,403.28Z" style="opacity:0.1"></path></g><g id="Character"><path d="M275.8,125.37s1.86-2,4-1.58c-2.11-3.8-8.87-3.26-11.12-2a2.76,2.76,0,0,1,1.85-3,5.13,5.13,0,0,0-6.14,4.46c-.43,3.26-1.66,7.32-8,10.67l7.35,6.87c8-1.35,5.7,6.38,3.67,10.7a8.18,8.18,0,0,0,6.08-3.84,8,8,0,0,1,.08,5,9.94,9.94,0,0,0,5.39-9.36,7.85,7.85,0,0,1,2.54,4.24c5.53-5.93-1.32-14.38-1.32-14.38a15.22,15.22,0,0,1,4.11,2.16C284.47,127.46,275.8,125.37,275.8,125.37Z" style="fill:#263238"></path><path d="M261.11,145c-2.9.88-6.59-9.84-4.58-13s7.58-3.35,9.87,1.08C269.36,138.76,266.48,143.33,261.11,145Z" style="fill:#092C6A"></path><polygon points="242.02 410.91 236.24 410.92 235.27 389.21 244.99 389.45 242.02 410.91" style="fill:#ffb573"></polygon><path d="M232,223.57s-.52,62.1-1.84,87.65c1.88,25.93,5.13,78,5.13,78l9.79.25s8.53-40.35,3.25-76.9c8.48-41.34,13.06-78.23,5.37-89Z" style="fill:#092C6A"></path><path d="M248.37,247.5c-3,10.06-.08,42.4,1.47,57.32,2.11-10.78,3.91-21.15,5.24-30.71Z" style="opacity:0.2"></path><path d="M235.59,408.11h7.51a.62.62,0,0,1,.64.56l.76,6.15a1.43,1.43,0,0,1-1.43,1.46c-3.31,0-4.89-.24-9.06-.23-2.57,0-4.12.26-7.67.26s-3.55-3.4-2.06-3.71c6.69-1.39,7.55-2.16,9.88-4A2.33,2.33,0,0,1,235.59,408.11Z" style="fill:#263238"></path><path d="M235.9,181.65a145.59,145.59,0,0,1-5.75,14A132.87,132.87,0,0,1,223,209.13l-.5.81c-.05.1-.23.37-.38.6s-.34.45-.51.67a8.9,8.9,0,0,1-2.47,2,12.42,12.42,0,0,1-4.93,1.38,29,29,0,0,1-8.32-.68,67.22,67.22,0,0,1-14.53-5.15,2.08,2.08,0,0,1,1.43-3.88l.08,0c2.28.6,4.67,1.17,7,1.64a60,60,0,0,0,7,1.08,24.68,24.68,0,0,0,6.45,0,5.44,5.44,0,0,0,2.11-.75,1.32,1.32,0,0,0,.38-.37l.55-1.07c1.12-2.11,2.17-4.29,3.21-6.46s2-4.38,3-6.6c1.9-4.43,3.74-9,5.4-13.42l0-.08a4.19,4.19,0,0,1,7.87,2.85Z" style="fill:#ffb573"></path><path d="M191.39,203.81a20,20,0,0,0-4.76.9l1.37,4.23s6.49,1.51,7.81-1.63l-.48-.65C194.4,205.36,193.32,203.81,191.39,203.81Z" style="fill:#ffb573"></path><polygon points="177.73 203.81 179.54 206.08 188 208.94 186.63 204.71 177.73 203.81" style="fill:#ffb573"></polygon><path d="M227.13,183.34c.23,6.91,3.17,18.91,4.85,40.23h33.54c-.52-12.78-.83-20.94,4.59-45.21a4.38,4.38,0,0,0-3.59-5.28,91.89,91.89,0,0,0-9.52-1,105.58,105.58,0,0,0-15.1,0c-2,.18-4,.44-5.89.72A10.36,10.36,0,0,0,227.13,183.34Z" style="fill:#ffb573"></path><path d="M266.42,179.83a26.23,26.23,0,0,0,1.32,10c.43-2.31.93-4.79,1.5-7.5Z" style="opacity:0.2"></path><path d="M244.42,188.67c-.29-3.17,3.48-7.5,6.31-8.41A22.69,22.69,0,0,0,244.42,188.67Z" style="opacity:0.2"></path><path d="M255.51,155.06c-1,4.85-1.91,13.76,1.49,17,0,0-1.33,4.93-10.35,4.93-9.93,0-4.75-4.93-4.75-4.93,5.42-1.3,5.28-5.32,4.34-9.09Z" style="fill:#ffb573"></path><path d="M251.73,158.29,246.24,163a15.86,15.86,0,0,1,.47,2.68c2.07-.3,4.91-2.57,5.13-4.74A7.4,7.4,0,0,0,251.73,158.29Z" style="opacity:0.2"></path><path d="M240.91,151.58c-3,.44-5.06-10.72-2.6-13.56s8.14.65,9.6,2.53C250.66,144.09,246.47,150.76,240.91,151.58Z" style="fill:#263238"></path><path d="M260.75,146.64c-1.86,7.91-2.47,11.3-7.21,14.71-7.12,5.14-16.44,1.14-17-7.17-.5-7.47,2.61-19.16,11-21A11.09,11.09,0,0,1,260.75,146.64Z" style="fill:#ffb573"></path><path d="M263.75,141.83c.89-3.55.87-9.62-8.39-12.22-9.6-2.69-16.47,8.54-18.31,4.47a2,2,0,0,1,.62-2.16s-4.25,2.08-2.42,4.69c2.78,3.95,21.06,3.67,21.06,3.67Z" style="fill:#263238"></path><path d="M258,151.94c-3,.45-5.06-10.71-2.6-13.55s8.14.65,9.6,2.53C267.78,144.46,263.59,151.13,258,151.94Z" style="fill:#263238"></path><polygon points="284.83 408.85 278.78 409.06 274.75 389.21 283.98 389.46 284.83 408.85" style="fill:#ffb573"></polygon><path d="M277.66,408h8a.59.59,0,0,1,.58.49l1.08,6.45a1.12,1.12,0,0,1-1.11,1.28c-2.78,0-4.15,0-7.66,0h-6.17c-2.92,0-3.18-2.8-2-3.28,4.81-1.95,4.65-2.9,6.11-4.51A1.55,1.55,0,0,1,277.66,408Z" style="fill:#263238"></path><path d="M241.17,223.57s11.05,63.07,15.7,88c4.84,26,17.88,77.6,17.88,77.6l9.26.25s-4.09-57.29-9.79-80.12c-1.11-41.34,1.49-75-8.7-85.77Z" style="fill:#092C6A"></path><path d="M247.63,146.59c-.11.65-.54,1.12-1,1s-.68-.66-.57-1.31.55-1.12,1-1.05S247.74,145.94,247.63,146.59Z" style="fill:#263238"></path><path d="M240.27,145.34c-.11.65-.54,1.12-1,1s-.68-.65-.57-1.31.55-1.12,1-1S240.39,144.69,240.27,145.34Z" style="fill:#263238"></path><path d="M239.89,144.1l-1.49-.72S239,144.74,239.89,144.1Z" style="fill:#263238"></path><path d="M242.34,146.9a17.84,17.84,0,0,1-3,3.76,2.86,2.86,0,0,0,2.24.83Z" style="fill:#ed893e"></path><path d="M244.68,154.64a5.56,5.56,0,0,1-1-.09.19.19,0,0,1-.16-.22.2.2,0,0,1,.22-.16,5.26,5.26,0,0,0,4.55-1.3.19.19,0,1,1,.28.26A5.4,5.4,0,0,1,244.68,154.64Z" style="fill:#263238"></path><path d="M261.89,153.46a6,6,0,0,1-3.61,2.75c-2,.51-3-1.3-2.38-3.18.53-1.69,2.23-4,4.24-3.69A2.68,2.68,0,0,1,261.89,153.46Z" style="fill:#ffb573"></path><path d="M250.84,145.59a.38.38,0,0,1-.36-.27c-.53-1.71-2.72-2.45-2.74-2.45a.38.38,0,0,1-.25-.49.38.38,0,0,1,.49-.25c.1,0,2.59.87,3.24,3a.39.39,0,0,1-.26.49Z" style="fill:#263238"></path><path d="M238.64,141.56a.39.39,0,0,1-.33-.19.39.39,0,0,1,.15-.53,3.86,3.86,0,0,1,3.53-.24.39.39,0,0,1,.17.52.39.39,0,0,1-.52.17h0a3.12,3.12,0,0,0-2.8.22A.35.35,0,0,1,238.64,141.56Z" style="fill:#263238"></path><path d="M269,174.14a114.09,114.09,0,0,1,9.09,11.06c1.39,2,2.75,4,4,6.09a37.28,37.28,0,0,1,3.28,7.05,14.75,14.75,0,0,1,.76,4.66,9.71,9.71,0,0,1-.14,1.47,7.71,7.71,0,0,1-.18.76l-.18.52c-.12.35-.24.71-.37,1l-.4.92a53.09,53.09,0,0,1-3.67,6.42,108.68,108.68,0,0,1-8.59,11.24,2.09,2.09,0,0,1-3.42-2.34l0,0c2.1-4.06,4.29-8.12,6.25-12.15a59,59,0,0,0,2.58-5.93l.24-.69.15-.61.08-.3c0-.06,0,0,0-.08V203a7.81,7.81,0,0,0-.55-2.11,29.9,29.9,0,0,0-2.83-5.35c-1.14-1.81-2.41-3.61-3.75-5.38-2.68-3.51-5.6-7-8.52-10.31l-.06-.06a4.19,4.19,0,0,1,6.2-5.63Z" style="fill:#ffb573"></path><path d="M247.25,145.35l-1.49-.72S246.35,146,247.25,145.35Z" style="fill:#263238"></path><path d="M269.93,222l-8.24,3.21,7.31,4s4.43-2.83,4.17-6.23Z" style="fill:#ffb573"></path><polygon points="258.18 231.1 264.48 234.11 269 229.17 261.69 225.18 258.18 231.1" style="fill:#ffb573"></polygon><path d="M264,172.28c2.53-.25,3.56.58,3.56.58-3.41,10.76-6.89,21.58-.73,24.36-.55,5.06-2,11.64-1.25,17.86-5.83-.64-26.33-1.75-35.71.31-2.56-34.56,2.61-42,2.61-42a9.61,9.61,0,0,1,3.3-.87c-1.08,4.33-4.1,14.76,10.15,14.63S264,172.28,264,172.28Z" style="fill:#263238"></path><path d="M231.15,177c-.78,1.81-8,18.93-1.67,22.62C236.85,203.93,231.15,177,231.15,177Z" style="fill:#263238"></path><path d="M184.06,182.27s-2.21-4.77-6.73-3.35C177.19,183.55,182.55,184.2,184.06,182.27Z" style="fill:#092C6A"></path><path d="M184.06,182.27s-2.21-4.77-6.73-3.35C177.19,183.55,182.55,184.2,184.06,182.27Z" style="fill:#fff;opacity:0.30000000000000004"></path><path d="M195.21,181.83a7.89,7.89,0,0,0-3.51-3.66l.45-.89a8.85,8.85,0,0,1,4,4.12Z" style="fill:#092C6A"></path><path d="M183.78,201.18a8.56,8.56,0,0,1-4.7-2.72l.71-.71a7.57,7.57,0,0,0,4.11,2.43Z" style="fill:#092C6A"></path><path d="M193,182.91c-2.24-4.65-8.51-3.36-9-.58-2.05-1.94-7.82.83-6.78,5.89.89,4.34,4.92,9.23,7,9.48s4.46-1.5,4.46-1.5,3,0,4.47-1.51S194.87,186.91,193,182.91Z" style="fill:#092C6A"></path><path d="M181.44,183.3a3.85,3.85,0,0,0-2.59,4.47l3.89-4.54A1.75,1.75,0,0,0,181.44,183.3Z" style="fill:#fff"></path><path d="M184,182.33s-.88-3.93,2.49-5.68c0,.5.76.82.76.82S184.78,178.28,184,182.33Z" style="fill:#263238"></path></g></svg>