<svg xmlns="http://www.w3.org/2000/svg" viewBox="0 0 500 500"><g id="background-complete"><rect y="382.4" width="500" height="0.25" style="fill:#ebebeb"></rect><rect x="416.78" y="398.49" width="33.12" height="0.25" style="fill:#ebebeb"></rect><rect x="292.75" y="398.62" width="8.69" height="0.25" style="fill:#ebebeb"></rect><rect x="354.33" y="389.21" width="61.44" height="0.25" style="fill:#ebebeb"></rect><rect x="212.45" y="395.11" width="12.69" height="0.25" style="fill:#ebebeb"></rect><rect x="166.72" y="395.11" width="36.83" height="0.25" style="fill:#ebebeb"></rect><rect x="52.46" y="390.89" width="25.43" height="0.25" style="fill:#ebebeb"></rect><rect x="83.89" y="390.89" width="74.89" height="0.25" style="fill:#ebebeb"></rect><path d="M237,337.8H43.91a5.71,5.71,0,0,1-5.7-5.71V60.66A5.71,5.71,0,0,1,43.91,55H237a5.71,5.71,0,0,1,5.71,5.71V332.09A5.71,5.71,0,0,1,237,337.8ZM43.91,55.2a5.46,5.46,0,0,0-5.45,5.46V332.09a5.46,5.46,0,0,0,5.45,5.46H237a5.47,5.47,0,0,0,5.46-5.46V60.66A5.47,5.47,0,0,0,237,55.2Z" style="fill:#ebebeb"></path><path d="M453.31,337.8H260.21a5.72,5.72,0,0,1-5.71-5.71V60.66A5.72,5.72,0,0,1,260.21,55h193.1A5.71,5.71,0,0,1,459,60.66V332.09A5.71,5.71,0,0,1,453.31,337.8ZM260.21,55.2a5.47,5.47,0,0,0-5.46,5.46V332.09a5.47,5.47,0,0,0,5.46,5.46h193.1a5.47,5.47,0,0,0,5.46-5.46V60.66a5.47,5.47,0,0,0-5.46-5.46Z" style="fill:#ebebeb"></path><rect x="92.67" y="264.08" width="264.09" height="9.56" style="fill:#f5f5f5"></rect><path d="M259.78,264.08s-2.51-6.4,6.89-7.64c14.44-1.9,18.55,7.64,18.55,7.64Z" style="fill:#e6e6e6"></path><rect x="374.33" y="273.64" width="35.1" height="108.76" style="fill:#f5f5f5"></rect><rect x="102.48" y="273.64" width="35.1" height="108.76" style="fill:#f5f5f5"></rect><polygon points="409.43 286.67 374.33 280.15 374.33 273.64 409.43 273.64 409.43 286.67" style="fill:#e6e6e6"></polygon><polygon points="137.57 286.67 102.48 280.15 102.48 273.64 137.57 273.64 137.57 286.67" style="fill:#e6e6e6"></polygon><rect x="356.76" y="264.08" width="54.39" height="9.56" transform="translate(767.91 537.72) rotate(180)" style="fill:#e6e6e6"></rect><polygon points="384.87 245 276.24 245 282.76 181.67 391.39 181.67 384.87 245" style="fill:#f0f0f0"></polygon><polygon points="346.28 245 325.49 245 330.23 264.08 351.03 264.08 346.28 245" style="fill:#ebebeb"></polygon><polygon points="300.73 261.65 362.27 261.65 363.51 264.08 294.01 264.08 300.73 261.65" style="fill:#e0e0e0"></polygon><polygon points="381.18 241.91 280.56 241.91 286.44 184.76 387.07 184.76 381.18 241.91" style="fill:#e6e6e6"></polygon><polygon points="107.75 264.08 119.46 264.08 132.3 197.33 120.6 197.33 107.75 264.08" style="fill:#e6e6e6"></polygon><polygon points="121.52 264.08 249.74 264.08 242.04 189.33 113.82 189.33 121.52 264.08" style="fill:#f0f0f0"></polygon><polygon points="125.87 260.43 244.63 260.43 237.69 192.99 118.92 192.99 125.87 260.43" style="fill:#f5f5f5"></polygon><rect x="274.84" y="86.33" width="152.38" height="66" style="fill:#f5f5f5"></rect><rect x="427.22" y="86.33" width="3.62" height="66" transform="translate(858.06 238.67) rotate(180)" style="fill:#f0f0f0"></rect><rect x="324.03" y="49.14" width="54" height="140.38" transform="translate(470.36 -231.7) rotate(90)" style="fill:#fafafa"></rect><path d="M421.22,119.33c-46.29-5.33-92.59,5.34-138.88,0v-2.66c46.29,5.33,92.59-5.34,138.88,0Z" style="fill:#f0f0f0"></path><rect x="254.59" y="118.58" width="54" height="1.5" transform="translate(400.92 -162.25) rotate(90)" style="fill:#f0f0f0"></rect><circle cx="111.41" cy="115.13" r="44.27" transform="translate(-23.47 28.68) rotate(-13.28)" style="fill:#f0f0f0"></circle><circle cx="111.41" cy="115.13" r="41.1" transform="translate(-23.47 28.68) rotate(-13.28)" style="fill:#fff"></circle><path d="M86.79,129.27l-.49-.87c18.33-10.23,23.18-12.85,24.52-13.53-1-2.65-8.69-19.52-13.9-30.83l.91-.42c14.36,31.16,14.19,31.46,14,31.75l-.29.19v0C110.85,115.89,96.36,123.93,86.79,129.27Z" style="fill:#f5f5f5"></path><path d="M313.06,319.76H229.63a9.94,9.94,0,0,0,9.66,8.77h65.89A7.79,7.79,0,0,0,313.06,319.76Z" style="fill:#e0e0e0"></path><path d="M268.89,328.53H203a9.93,9.93,0,0,1-9.65-8.77L184,227.32a7.77,7.77,0,0,1,7.88-8.76h65.89a9.92,9.92,0,0,1,9.65,8.76l9.37,92.44A7.78,7.78,0,0,1,268.89,328.53Z" style="fill:#e0e0e0"></path><path d="M264.8,328.53H198.92a9.93,9.93,0,0,1-9.66-8.77l-9.37-92.44a7.78,7.78,0,0,1,7.88-8.76h65.89a9.93,9.93,0,0,1,9.66,8.76l9.36,92.44A7.78,7.78,0,0,1,264.8,328.53Z" style="fill:#e6e6e6"></path><rect x="240.45" y="328.53" width="13.94" height="53.87" style="fill:#e0e0e0"></rect><polygon points="259.08 373.8 235.76 373.8 228.2 382.4 266.64 382.4 259.08 373.8" style="fill:#e0e0e0"></polygon></g><g id="background-simple"><path d="M268.17,157.58c-39.35-31.86-62.57-68.47-111-81.79-40.48-11.14-60.85,6.67-71.65,39.06-26.62,79.82,44.91,167.26,132,204,82.52,34.85,148.38,6,167.69-63.83,7.3-26.38,6.9-72.26-35.36-84.95C318.9,160.82,301.7,184.72,268.17,157.58Z" style="fill:#092C6A"></path><path d="M268.17,157.58c-39.35-31.86-62.57-68.47-111-81.79-40.48-11.14-60.85,6.67-71.65,39.06-26.62,79.82,44.91,167.26,132,204,82.52,34.85,148.38,6,167.69-63.83,7.3-26.38,6.9-72.26-35.36-84.95C318.9,160.82,301.7,184.72,268.17,157.58Z" style="fill:#fff;opacity:0.9"></path></g><g id="Shadow"><ellipse id="path" cx="245" cy="416.24" rx="193.89" ry="11.32" style="fill:#f5f5f5"></ellipse></g><g id="Character"><polygon points="224.8 402.73 217.07 400.57 220.03 382.09 227.76 384.26 224.8 402.73" style="fill:#cf7a64"></polygon><polygon points="278.12 408.04 270.09 408.04 269.54 389.45 277.57 389.45 278.12 408.04" style="fill:#cf7a64"></polygon><path d="M269.28,407.11h9.35a.67.67,0,0,1,.66.55l1.29,7.14a1.23,1.23,0,0,1-1.23,1.42c-3.15-.05-5-.24-9-.24-2.44,0-9.81.26-13.18.26s-3.67-3.33-2.28-3.64c6.24-1.35,11-3.21,13-5A2,2,0,0,1,269.28,407.11Z" style="fill:#263238"></path><path d="M216.82,399.56l8.52,2.08a.7.7,0,0,1,.53.7l-.15,7.3a1.17,1.17,0,0,1-1.46,1.12c-3.06-.81-7.46-2.07-11.32-3-4.51-1.11-4.67-1.31-10-2.6-3.2-.78-3.3-4.24-1.89-4.2,6.43.15,7.65.72,13.72-1.24A3.76,3.76,0,0,1,216.82,399.56Z" style="fill:#263238"></path><path d="M258.05,171c-5.1,3.15-10.19,6-15.5,8.62-2.64,1.33-5.33,2.58-8.05,3.79-1.36.61-2.75,1.19-4.14,1.75-.69.29-1.41.55-2.11.82l-1.06.41a13.83,13.83,0,0,1-1.9.57,11,11,0,0,1-4.23.08,12.15,12.15,0,0,1-3.64-1.32,17.13,17.13,0,0,1-4.67-4,36.06,36.06,0,0,1-5.05-8.56,76.25,76.25,0,0,1-5.06-17.48l5.81-1.57c1.08,2.53,2.21,5.17,3.45,7.66s2.49,5,3.88,7.24a30.6,30.6,0,0,0,4.46,5.92,6.33,6.33,0,0,0,2,1.43.79.79,0,0,0,.45.07c.06,0,0-.05.08-.09a1.87,1.87,0,0,1,.16-.1l.94-.45c.62-.3,1.25-.59,1.87-.91l3.74-1.9q3.74-2,7.45-4c4.93-2.74,9.94-5.58,14.78-8.37Z" style="fill:#cf7a64"></path><path d="M263,168.67c-3.08,7-16.89,10.61-16.89,10.61l-8-12.65s6.05-6.32,14.1-8.35C262,155.79,266.31,161,263,168.67Z" style="fill:#092C6A"></path><path d="M255.23,167a14.19,14.19,0,0,0-9.17,12.24s10.83-2.81,15.44-8.33A5.61,5.61,0,0,0,255.23,167Z" style="opacity:0.2"></path><path d="M205.45,159.47,199,155.6l4.06-6.78s7.62,2.2,6.27,7.89Z" style="fill:#cf7a64"></path><polygon points="195.92 150.52 196.69 145.5 203.02 148.82 198.96 155.6 195.92 150.52" style="fill:#cf7a64"></polygon><polygon points="220.03 382.1 218.51 391.62 226.24 393.79 227.76 384.26 220.03 382.1" style="opacity:0.2"></polygon><polygon points="277.57 389.46 269.54 389.46 269.83 399.04 277.86 399.04 277.57 389.46" style="opacity:0.2"></polygon><path d="M297.72,167.81c-9,28.63-9.16,58.23-10.27,64.4-6.24-.82-29.74-4-42.55-5.68-2.55-39.82,6.58-62.24,9.06-67.5a2.36,2.36,0,0,1,1.91-1.36c1.17-.12,3-.29,5.23-.39,1.18-.05,2.45-.08,3.77-.07.73,0,1.47,0,2.22,0a156.68,156.68,0,0,1,18.09,2.42c1.13.2,2.28.44,3.39.69s2,.49,3,.74,2.11.57,3,.83A4.65,4.65,0,0,1,297.72,167.81Z" style="fill:#092C6A"></path><path d="M266.2,193.4l-3.56-.38a1.51,1.51,0,0,0-1.58,1.34l-.1.65a1.38,1.38,0,0,0,1.15,1.63l3.57.38a1.51,1.51,0,0,0,1.58-1.34l.09-.64A1.38,1.38,0,0,0,266.2,193.4Z" style="fill:#fff"></path><path d="M269.49,186.07c-1.53-3.48-2-10.17-2-10.17l-1.09-.12s-2.37,6.39-4.85,9.44a1.25,1.25,0,0,0-.25.55l-.35,2.42a1,1,0,0,0,.27.88,5.29,5.29,0,0,1,1.47,2.42.93.93,0,0,0,.78.82l1.07.12,1.08.11a1,1,0,0,0,1-.63,5.8,5.8,0,0,1,2.11-2,1.14,1.14,0,0,0,.51-.79l.35-2.42A1.08,1.08,0,0,0,269.49,186.07Z" style="fill:#fff"></path><path d="M280.39,173.83a.68.68,0,0,0-.65.38L268,173l.07-.44-1.27-.13-.06.43L255,171.56a.61.61,0,0,0-.52-.5.71.71,0,0,0-.74.62.65.65,0,0,0,.54.76.67.67,0,0,0,.64-.37l9.28,1a12,12,0,0,0-8.81,9.43l-.43,0-.2,1.37L256,184l.2-1.38-.36,0c1.1-5.43,5.75-9.37,10.8-9.18l-.06.4,1.27.13.05-.4c5,.88,8.34,5.68,7.86,11.18l-.32,0-.2,1.38,1.26.13.2-1.38-.47-.05a10.89,10.89,0,0,0-5.86-11l9.33,1a.62.62,0,0,0,.52.49.69.69,0,0,0,.73-.62A.64.64,0,0,0,280.39,173.83Z" style="fill:#fff"></path><path d="M295.54,175.4c-1.22,4.67-2.24,9.31-3.07,13.81-5.36-3.93-4-14.13-4-14.13Z" style="opacity:0.2"></path><path d="M286,139.19c-1.92,5.67-4.49,16.18-.93,20.61-3.59,2.72-8.21,5.8-15.15,5.12s-5.1-5.27-2.94-7.53c6.7-.69,7.17-5.52,6.65-10.2Z" style="fill:#cf7a64"></path><path d="M281,142.46l-7.32,4.73a18.15,18.15,0,0,1,.13,3.28c2.53,0,6.3-2.29,6.91-4.85A8.88,8.88,0,0,0,281,142.46Z" style="opacity:0.2"></path><path d="M271.25,118.11c-4,2.61-2.93,13.46,0,14.27S278,113.65,271.25,118.11Z" style="fill:#263238"></path><path d="M290.29,132.53c-2.85,7.44-4.15,11.93-9.2,14.62-7.61,4-15.88-2.38-15.3-10.52.52-7.33,5.1-18.26,13.47-18.94A10.87,10.87,0,0,1,290.29,132.53Z" style="fill:#cf7a64"></path><path d="M288.18,138.23c-3.14,1.19-6.9.09-5.51-1.52,3.16-3.69,2.11-7.88,6.33-9-3.39,0-5.84-1.31-10.05-5.15-3.42-3.12-10.3,1.12-11.39-4.25a5.6,5.6,0,0,0-2.89-3.86,3.69,3.69,0,0,1,5,1.24c.91,1.39,3.58-1.75,6.62-2.88,3.48-1.28,6.78-.73,8.75,1.8,2.58,3.29,5.73,5.74,8.92,5.41,4.46-.46,7.54,2.75,4.66,6.22C303.29,129.58,295.52,138.91,288.18,138.23Z" style="fill:#263238"></path><path d="M297.22,126.35s6.61.28,4.61-5.5C303.78,124.35,304.28,127.4,297.22,126.35Z" style="fill:#263238"></path><path d="M291.27,140.22a7,7,0,0,1-4.74,2.37c-2.39.15-3-2.17-1.82-4.2,1-1.84,3.54-4.12,5.69-3.31S292.77,138.5,291.27,140.22Z" style="fill:#cf7a64"></path><path d="M216.11,389l13.09,3.67s11.05-47.1,15-71.81c1.19-7.51,4.94-17.22,8.16-28.33,4.07-14,9-29.1,13-40.91,4.24-12.44,7.37-21.39,7.37-21.39l-27.83-3.72S227,288.39,224.35,312.75C221.61,338.07,216.11,389,216.11,389Z" style="fill:#263238"></path><path d="M252.32,292.55c4.07-14,9-29.1,13-40.91l-2.52-6.47C255.35,253,251.85,278.53,252.32,292.55Z" style="opacity:0.2"></path><path d="M258.16,228.31s.44,69.15,2.35,92.59c2.1,25.67,5.63,76.28,5.63,76.28h14.7s1.22-46.69.56-71.8c-.76-28.59,6.05-93.17,6.05-93.17Z" style="fill:#263238"></path><polygon points="265.29 397.5 282.6 397.5 283.2 392.33 263.88 392 265.29 397.5" style="fill:#092C6A"></polygon><polygon points="214.38 388.87 229.98 393.24 231.39 388.2 214.03 383.05 214.38 388.87" style="fill:#092C6A"></polygon><path d="M278.12,131c-.2.61-.68,1-1.08.88s-.58-.73-.38-1.34.68-1,1.08-.89S278.31,130.41,278.12,131Z" style="fill:#263238"></path><path d="M271.14,128.83c-.2.62-.68,1-1.08.89s-.58-.74-.38-1.35.68-1,1.08-.89S271.33,128.21,271.14,128.83Z" style="fill:#263238"></path><path d="M273.26,129.83a23.22,23.22,0,0,1-4.61,4.36,3.73,3.73,0,0,0,2.77,1.48Z" style="fill:#ba4d3c"></path><path d="M273.51,138.14a5.35,5.35,0,0,0,4.12-.92.19.19,0,1,0-.24-.3,5.13,5.13,0,0,1-4.59.66.19.19,0,0,0-.24.12.2.2,0,0,0,.13.24A5.15,5.15,0,0,0,273.51,138.14Z" style="fill:#263238"></path><path d="M281.48,129.2a.31.31,0,0,0,.19,0,.37.37,0,0,0,.23-.48,3.78,3.78,0,0,0-2.48-2.43.38.38,0,1,0-.18.74h0a3,3,0,0,1,1.95,1.94A.37.37,0,0,0,281.48,129.2Z" style="fill:#263238"></path><path d="M268.89,125.48a.4.4,0,0,0,.34-.11,3,3,0,0,1,2.56-1,.38.38,0,0,0,.44-.31.38.38,0,0,0-.31-.44,3.79,3.79,0,0,0-3.24,1.22.38.38,0,0,0,0,.54A.42.42,0,0,0,268.89,125.48Z" style="fill:#263238"></path><path d="M266.57,408.52a9.86,9.86,0,0,0,2.11-.29.19.19,0,0,0,.15-.16.17.17,0,0,0-.08-.19c-.28-.18-2.81-1.77-3.71-1.32a.65.65,0,0,0-.35.54,1.12,1.12,0,0,0,.35,1A2.39,2.39,0,0,0,266.57,408.52Zm1.57-.56c-1.37.27-2.42.22-2.84-.15a.72.72,0,0,1-.23-.68.25.25,0,0,1,.13-.23C265.67,406.66,267.12,407.35,268.14,408Z" style="fill:#092C6A"></path><path d="M268.64,408.23a.19.19,0,0,0,.1,0,.21.21,0,0,0,.1-.17c0-.1-.1-2.42-1-3.18a1,1,0,0,0-.8-.24h0a.65.65,0,0,0-.62.49c-.21.9,1.33,2.66,2.14,3.11ZM267.15,405a.6.6,0,0,1,.43.17,4.38,4.38,0,0,1,.85,2.51c-.8-.63-1.77-2-1.65-2.48,0-.05,0-.17.29-.2h.08Z" style="fill:#092C6A"></path><path d="M215.79,400.45a.2.2,0,0,0,.16-.12.19.19,0,0,0,0-.21c-.31-.27-3.06-2.63-4.13-2.33a.61.61,0,0,0-.43.42h0a1.06,1.06,0,0,0,.13,1c.67,1,3,1.21,4.3,1.26Zm-3.85-2.31c.64-.06,2.18,1,3.27,1.9-1.79-.14-3.05-.52-3.43-1.07a.69.69,0,0,1-.08-.64.21.21,0,0,1,.17-.17Z" style="fill:#092C6A"></path><path d="M215.79,400.45h.05a.18.18,0,0,0,.12-.15c0-.09.32-2.24-.48-3.3a1.42,1.42,0,0,0-.94-.57h0c-.52-.07-.73.15-.82.35-.35.85,1.1,3,1.94,3.64A.16.16,0,0,0,215.79,400.45Zm-1.5-3.66h.2a1,1,0,0,1,.69.42,4.45,4.45,0,0,1,.44,2.65c-.82-.81-1.76-2.44-1.55-2.95A.24.24,0,0,1,214.29,396.79Zm.22-.18Z" style="fill:#092C6A"></path><path d="M303.57,177.82c1.33,4.28,2.37,8.5,3.3,12.86.44,2.18.88,4.37,1.2,6.64a53.48,53.48,0,0,1,.67,7.16c0,.67,0,1.38-.05,2.16,0,.42-.08.84-.16,1.33a12.22,12.22,0,0,1-.38,1.56,11.21,11.21,0,0,1-3.27,4.91,18.12,18.12,0,0,1-7.75,3.83,35.22,35.22,0,0,1-7.18,1,41.07,41.07,0,0,1-7-.29l-.13-6a60.09,60.09,0,0,0,11.28-3.54,9.69,9.69,0,0,0,3.47-2.41c.23-.35.18-.51.13-.52l0,0s0-.16,0-.28c0-.3,0-.67-.09-1.08-.21-1.67-.59-3.69-1-5.65s-.93-4-1.45-6l-3.18-12.2Z" style="fill:#cf7a64"></path><path d="M296.24,162.82c4.06,2.42,8.64,16.87,8.64,16.87L292,186.18s-2.64-6.49-4.54-11.81C283.8,164.19,288.26,158.05,296.24,162.82Z" style="fill:#092C6A"></path><path d="M285.05,213.36,277.7,212l.69,6.78s7.34,2.08,7.6-1.69Z" style="fill:#cf7a64"></path><polygon points="271.5 215.24 274.56 220.17 278.39 218.78 277.7 212 271.5 215.24" style="fill:#cf7a64"></polygon></g><g id="Icons"><g style="opacity:0.30000000000000004"><path d="M102.52,209.16h-.09a.49.49,0,0,1-.4-.58c.22-1.16.45-2.3.7-3.45a.5.5,0,0,1,1,.21q-.36,1.71-.69,3.42A.5.5,0,0,1,102.52,209.16Z" style="fill:#092C6A"></path><path d="M104.86,198.86l-.12,0a.5.5,0,0,1-.36-.61c.6-2.28,1.27-4.57,2-6.82a.5.5,0,0,1,1,.3c-.71,2.23-1.37,4.51-2,6.78A.5.5,0,0,1,104.86,198.86Zm4.28-13.49a.39.39,0,0,1-.18,0,.49.49,0,0,1-.29-.64c.81-2.21,1.69-4.43,2.62-6.6a.49.49,0,0,1,.65-.26.5.5,0,0,1,.27.65c-.92,2.16-1.79,4.37-2.61,6.56A.49.49,0,0,1,109.14,185.37Zm5.52-13a.41.41,0,0,1-.21-.05.48.48,0,0,1-.23-.66c1-2.12,2.1-4.25,3.23-6.32a.49.49,0,0,1,.67-.2.49.49,0,0,1,.2.68c-1.11,2.05-2.19,4.16-3.2,6.27A.51.51,0,0,1,114.66,172.34ZM376,155.68a.51.51,0,0,1-.42-.23c-1.27-2-2.61-3.91-4-5.81a.49.49,0,0,1,.12-.69.51.51,0,0,1,.7.11c1.37,1.91,2.72,3.87,4,5.85a.5.5,0,0,1-.15.69A.53.53,0,0,1,376,155.68ZM148.11,127.16a.52.52,0,0,1-.36-.16.5.5,0,0,1,0-.71c1.73-1.59,3.52-3.17,5.32-4.69a.5.5,0,1,1,.64.77c-1.79,1.5-3.56,3.07-5.28,4.65A.48.48,0,0,1,148.11,127.16Zm10.81-9.09a.5.5,0,0,1-.3-.9c1.87-1.44,3.8-2.84,5.73-4.17a.5.5,0,1,1,.56.82c-1.91,1.33-3.82,2.72-5.69,4.14A.48.48,0,0,1,158.92,118.07Zm11.61-8a.5.5,0,0,1-.43-.24.51.51,0,0,1,.16-.69c2-1.24,4.05-2.46,6.1-3.61a.5.5,0,1,1,.49.87c-2,1.15-4.08,2.35-6.06,3.59A.5.5,0,0,1,170.53,110Zm154.66-2.58a.45.45,0,0,1-.25-.07c-2-1.17-4.1-2.31-6.18-3.38a.51.51,0,0,1-.21-.68.5.5,0,0,1,.67-.21c2.09,1.08,4.19,2.23,6.22,3.41a.5.5,0,0,1-.25.93ZM312.64,101a.54.54,0,0,1-.21,0c-2.12-1-4.3-1.91-6.47-2.79a.5.5,0,0,1-.28-.65.51.51,0,0,1,.66-.28c2.18.89,4.37,1.83,6.51,2.81a.5.5,0,0,1,.24.67A.49.49,0,0,1,312.64,101Zm-13.11-5.29a.45.45,0,0,1-.16,0c-2.2-.77-4.46-1.5-6.71-2.17a.49.49,0,0,1-.34-.62.51.51,0,0,1,.62-.34c2.27.68,4.54,1.41,6.76,2.19a.5.5,0,0,1-.17,1Zm-13.56-4h-.12c-2.26-.56-4.58-1.07-6.88-1.52a.5.5,0,0,1-.39-.59.49.49,0,0,1,.58-.39c2.32.45,4.65,1,6.93,1.53a.49.49,0,0,1,.37.6A.5.5,0,0,1,286,91.63Zm-63.1-1.89a.5.5,0,0,1-.09-1c2.31-.42,4.66-.8,7-1.11a.48.48,0,0,1,.56.43.5.5,0,0,1-.42.56c-2.33.31-4.67.68-7,1.1Zm49.23-.83H272c-2.3-.34-4.65-.63-7-.87a.5.5,0,1,1,.1-1c2.35.23,4.72.52,7,.87a.5.5,0,0,1,.42.56A.51.51,0,0,1,272.1,88.91Zm-35.23-1a.5.5,0,0,1,0-1c2.33-.2,4.71-.35,7.07-.44a.52.52,0,0,1,.52.48.51.51,0,0,1-.48.52c-2.35.09-4.71.24-7,.44Zm21.18-.35h0c-2.33-.13-4.7-.2-7-.21a.5.5,0,0,1,0-1h0c2.35,0,4.73.08,7.08.21a.5.5,0,0,1,.48.52A.51.51,0,0,1,258.05,87.51Z" style="fill:#092C6A"></path><path d="M381.42,164.77a.5.5,0,0,1-.44-.25c-.56-1-1.14-2-1.73-3a.5.5,0,0,1,.87-.51c.59,1,1.17,2,1.73,3.05a.49.49,0,0,1-.19.68A.53.53,0,0,1,381.42,164.77Z" style="fill:#092C6A"></path></g><path d="M191.59,93.22c.78.81,1.54,2.43,2,5.55-2.46-1-5-3.84-5.09-5.42,0-.37.07-.88,1.09-.95h.19A2.44,2.44,0,0,1,191.59,93.22Z" style="fill:#092C6A"></path><path d="M197.35,97.72a7,7,0,0,1-.79-2.46c-.37-2.77.49-5.49.89-5.65,0,0,.47.29.6,3.06A10.58,10.58,0,0,1,197.35,97.72Z" style="fill:#092C6A"></path><path d="M201.43,118.88h-7.68l0-.25c.91-8.09,1.13-14.39.66-18.86a3.67,3.67,0,0,0,.93.06,2.89,2.89,0,0,0,2-.87,4.44,4.44,0,0,0,3.06,1.37,5.13,5.13,0,0,0,1,0C200.06,106.8,199.78,115.16,201.43,118.88Z" style="fill:#092C6A"></path><path d="M205.91,95.59a4.94,4.94,0,0,1-3.58,3.87,20.73,20.73,0,0,1,2-5.68c.48-.83.88-1.11,1.11-1.11l.09,0C205.91,92.84,206.26,94.06,205.91,95.59Z" style="fill:#092C6A"></path><path d="M217.56,88.63A29.81,29.81,0,0,1,212,105a29.52,29.52,0,0,0-4.82,11.31,3.22,3.22,0,0,1-3.18,2.56h-1.75c-1.76-3.36-1.44-12.09-.08-18.64a5.64,5.64,0,0,0,4.48-4.48c.39-1.79,0-3.4-.85-3.76-.47-.18-1.22-.09-2.1,1.4a22.05,22.05,0,0,0-2.15,6.18,5.47,5.47,0,0,1-1.08,0,3.71,3.71,0,0,1-2.64-1.22c.68-1.06,1.11-2.84,1-5.75-.12-2.56-.53-3.75-1.31-3.75-1.11,0-1.69,2.79-1.73,4.66a8.24,8.24,0,0,0,1.15,4.84,2.23,2.23,0,0,1-1.56.72,4.16,4.16,0,0,1-1-.09c-.39-3.05-1.14-5.16-2.23-6.3a3.17,3.17,0,0,0-2.6-1c-1.68.11-1.8,1.25-1.77,1.72.12,1.94,3,5.25,5.93,6.19.43,3.9.39,9.87-.63,19l0,.33h-1.48a3.22,3.22,0,0,1-3.19-2.56A29.51,29.51,0,0,0,183.54,105,29.81,29.81,0,0,1,178,88.63a19.8,19.8,0,0,1,39.59,0Z" style="fill:#092C6A"></path><rect x="190.82" y="120.02" width="13.88" height="3.89" rx="0.8" style="fill:#092C6A;opacity:0.6000000000000001"></rect><rect x="190.82" y="125.23" width="13.88" height="3.89" rx="0.8" style="fill:#092C6A;opacity:0.30000000000000004"></rect><rect x="326.91" y="108.9" width="43.69" height="37.4" rx="3.83" transform="translate(18.78 -42.78) rotate(7.21)" style="fill:#092C6A"></rect><rect x="327.59" y="108.38" width="43.69" height="37.4" rx="3.83" transform="translate(18.72 -42.87) rotate(7.21)" style="fill:#fff;opacity:0.8"></rect><path d="M369.66,110.79l-35.75-4.53a3.83,3.83,0,0,0-4.28,3.32l-.52,4.11a1,1,0,0,0,.85,1.1l41.4,5.24a1,1,0,0,0,1.1-.85l.52-4.11A3.83,3.83,0,0,0,369.66,110.79Z" style="fill:#092C6A"></path><rect x="339.35" y="120" width="5.3" height="5.3" transform="translate(18.11 -41.98) rotate(7.21)" style="fill:#092C6A;opacity:0.6000000000000001"></rect><rect x="346.92" y="120.96" width="5.3" height="5.3" transform="matrix(0.99, 0.13, -0.13, 0.99, 18.29, -42.92)" style="fill:#092C6A;opacity:0.6000000000000001"></rect><rect x="354.48" y="121.91" width="5.3" height="5.3" transform="translate(18.47 -43.86) rotate(7.21)" style="fill:#092C6A;opacity:0.6000000000000001"></rect><rect x="362.05" y="122.87" width="5.3" height="5.3" transform="translate(18.65 -44.8) rotate(7.21)" style="fill:#092C6A;opacity:0.6000000000000001"></rect><rect x="330.87" y="126.26" width="5.3" height="5.3" transform="translate(18.83 -40.86) rotate(7.21)" style="fill:#092C6A;opacity:0.6000000000000001"></rect><rect x="338.44" y="127.22" width="5.3" height="5.3" transform="translate(19.01 -41.8) rotate(7.21)" style="fill:#092C6A;opacity:0.6000000000000001"></rect><rect x="346" y="128.18" width="5.3" height="5.3" transform="translate(19.19 -42.75) rotate(7.21)" style="fill:#092C6A;opacity:0.6000000000000001"></rect><rect x="353.57" y="129.13" width="5.3" height="5.3" transform="translate(19.37 -43.69) rotate(7.21)" style="fill:#092C6A;opacity:0.6000000000000001"></rect><rect x="361.14" y="130.09" width="5.3" height="5.3" transform="translate(19.55 -44.63) rotate(7.21)" style="fill:#092C6A;opacity:0.6000000000000001"></rect><rect x="329.96" y="133.48" width="5.3" height="5.3" transform="matrix(0.99, 0.13, -0.13, 0.99, 19.73, -40.69)" style="fill:#092C6A;opacity:0.6000000000000001"></rect><rect x="337.52" y="134.44" width="5.3" height="5.3" transform="translate(19.91 -41.63) rotate(7.21)" style="fill:#092C6A;opacity:0.6000000000000001"></rect><rect x="345.09" y="135.4" width="5.3" height="5.3" transform="translate(20.08 -42.57) rotate(7.21)" style="fill:#092C6A;opacity:0.6000000000000001"></rect><path d="M367.16,115h0a1.2,1.2,0,0,1-1-1.27l.25-3.33a1.06,1.06,0,0,1,1.21-1h0a1.21,1.21,0,0,1,1,1.27l-.25,3.33A1.07,1.07,0,0,1,367.16,115Z" style="fill:#fff"></path><path d="M361.14,114.22h0a1.21,1.21,0,0,1-1-1.27l.25-3.33a1.07,1.07,0,0,1,1.21-1h0a1.2,1.2,0,0,1,1,1.27l-.25,3.33A1.07,1.07,0,0,1,361.14,114.22Z" style="fill:#fff"></path><path d="M355.13,113.46h0a1.22,1.22,0,0,1-1.05-1.28l.25-3.33a1.08,1.08,0,0,1,1.21-1h0a1.23,1.23,0,0,1,1,1.28l-.25,3.33A1.08,1.08,0,0,1,355.13,113.46Z" style="fill:#fff"></path><path d="M349.11,112.7h0a1.21,1.21,0,0,1-1-1.28l.25-3.33a1.07,1.07,0,0,1,1.21-1h0a1.21,1.21,0,0,1,1,1.28l-.25,3.33A1.07,1.07,0,0,1,349.11,112.7Z" style="fill:#fff"></path><path d="M343.09,111.94h0a1.21,1.21,0,0,1-1-1.28l.25-3.33a1.07,1.07,0,0,1,1.21-1h0a1.21,1.21,0,0,1,1,1.28L344.3,111A1.07,1.07,0,0,1,343.09,111.94Z" style="fill:#fff"></path><path d="M337.08,111.18h0A1.23,1.23,0,0,1,336,109.9l.25-3.33a1.08,1.08,0,0,1,1.21-1h0a1.22,1.22,0,0,1,1.05,1.28l-.25,3.32A1.08,1.08,0,0,1,337.08,111.18Z" style="fill:#fff"></path><polygon points="404.77 227.22 401.75 226.76 401.93 225.55 403.74 225.83 404.02 224.01 405.23 224.2 404.77 227.22" style="fill:#092C6A"></polygon><path d="M397.27,226.07l-4.47-.68.19-1.21,4.47.69Zm-8.94-1.36-4.48-.69.19-1.21,4.47.69Zm-8.95-1.37-4.47-.69.18-1.2,4.47.68ZM370.43,222l-4.47-.69.18-1.2,4.48.68Z" style="fill:#092C6A"></path><polygon points="361.49 220.6 358.46 220.14 358.93 217.12 360.13 217.3 359.86 219.12 361.67 219.39 361.49 220.6" style="fill:#092C6A"></polygon><path d="M360.82,212.83l-1.21-.19.69-4.47,1.2.19Zm1.37-9L361,203.7l.68-4.48,1.21.19Zm1.37-8.95-1.21-.18.68-4.47,1.21.18Zm1.36-8.94-1.2-.19.68-4.47,1.21.18Z" style="fill:#092C6A"></path><polygon points="366.29 177.04 365.09 176.85 365.55 173.84 368.57 174.3 368.38 175.51 366.57 175.23 366.29 177.04" style="fill:#092C6A"></polygon><path d="M404.17,181l-4.47-.68.18-1.21,4.48.68Zm-8.95-1.37-4.47-.68.19-1.21,4.47.68Zm-8.94-1.37-4.48-.68.19-1.21,4.47.69Zm-8.95-1.36-4.47-.69L373,175l4.47.69Z" style="fill:#092C6A"></path><polygon points="411.39 183.94 410.18 183.75 410.46 181.94 408.64 181.66 408.83 180.46 411.85 180.92 411.39 183.94" style="fill:#092C6A"></polygon><path d="M405.91,219.73l-1.2-.19.68-4.47,1.21.18Zm1.37-8.95-1.21-.19.69-4.47,1.21.19Zm1.37-8.95-1.21-.18.69-4.48,1.2.19Zm1.37-8.94-1.21-.19.69-4.47,1.2.18Z" style="fill:#092C6A"></path><rect x="363.48" y="171.95" width="5.16" height="5.16" transform="translate(30.59 -53.34) rotate(8.7)" style="fill:#fff"></rect><path d="M368.73,178.17l-6.31-1,1-6.3,6.31,1Zm-4.91-2,3.89.6.59-3.9-3.89-.59Z" style="fill:#092C6A"></path><rect x="408.57" y="178.85" width="5.16" height="5.16" transform="translate(32.16 -60.08) rotate(8.7)" style="fill:#fff"></rect><path d="M413.82,185.07l-6.3-1,1-6.31,6.31,1Zm-4.91-2,3.89.59.6-3.89-3.9-.59Z" style="fill:#092C6A"></path><rect x="356.58" y="217.05" width="5.16" height="5.16" transform="translate(37.33 -51.78) rotate(8.7)" style="fill:#fff"></rect><path d="M361.83,223.26l-6.3-1,1-6.31,6.31,1Zm-4.91-2,3.89.6.6-3.89-3.9-.6Z" style="fill:#092C6A"></path><rect x="401.68" y="223.94" width="5.16" height="5.16" transform="translate(38.9 -58.52) rotate(8.7)" style="fill:#fff"></rect><path d="M406.93,230.16l-6.31-1,1-6.31,6.31,1Zm-4.92-2,3.89.6.6-3.89-3.89-.6Z" style="fill:#092C6A"></path><rect x="360.03" y="194.5" width="5.16" height="5.16" transform="translate(33.97 -52.56) rotate(8.7)" style="fill:#092C6A"></rect><rect x="405.12" y="201.4" width="5.16" height="5.16" transform="translate(35.52 -59.29) rotate(8.7)" style="fill:#092C6A"></rect><rect x="386.03" y="175.4" width="5.16" height="5.16" transform="translate(623.29 -179.25) rotate(98.7)" style="fill:#092C6A"></rect><rect x="379.13" y="220.5" width="5.16" height="5.16" transform="translate(659.93 -120.52) rotate(98.7)" style="fill:#092C6A"></rect><path d="M385.38,194.31l-12.15,8.93a4.85,4.85,0,0,0-1.59,5.83l-1.07.78a1.12,1.12,0,1,0,1.33,1.81l1.07-.78a4.85,4.85,0,0,0,6,.22l12.16-8.93Z" style="fill:#092C6A"></path><path d="M385.38,194.31l-12.15,8.93a4.85,4.85,0,0,0-1.59,5.83l-1.07.78a1.12,1.12,0,1,0,1.33,1.81l1.07-.78a4.85,4.85,0,0,0,6,.22l12.16-8.93Z" style="fill:#fff;opacity:0.6000000000000001"></path><path d="M393.39,201.28l-.36-.49,4.78-3.5a4.88,4.88,0,0,0-5.78-7.87l-4.77,3.51-.36-.48a1.87,1.87,0,0,0-3,2.22l6.48,8.83a1.88,1.88,0,0,0,3-2.22Z" style="fill:#092C6A"></path><path d="M143.7,171.87h0a5.22,5.22,0,0,1-7.31,1L97.76,143.77l6.29-8.34,38.62,29.13A5.21,5.21,0,0,1,143.7,171.87Z" style="fill:#092C6A"></path><path d="M143.7,171.87h0a5.22,5.22,0,0,1-7.31,1L97.76,143.77l6.29-8.34,38.62,29.13A5.21,5.21,0,0,1,143.7,171.87Z" style="fill:#fff;opacity:0.8"></path><rect x="100.85" y="139.77" width="10.44" height="7.44" transform="translate(-72.36 141.79) rotate(-52.98)" style="fill:#092C6A"></rect><rect x="100.85" y="139.77" width="10.44" height="7.44" transform="translate(-72.36 141.79) rotate(-52.98)" style="fill:#fff;opacity:0.30000000000000004"></rect><rect x="107.64" y="144.89" width="10.44" height="7.44" transform="translate(-73.75 149.25) rotate(-52.98)" style="fill:#092C6A;opacity:0.8"></rect><rect x="107.64" y="144.89" width="10.44" height="7.44" transform="translate(-73.75 149.25) rotate(-52.98)" style="fill:#fff;opacity:0.30000000000000004"></rect><rect x="114.43" y="150.01" width="10.44" height="7.44" transform="translate(-75.14 156.71) rotate(-52.98)" style="fill:#092C6A;opacity:0.6000000000000001"></rect><rect x="114.43" y="150.01" width="10.44" height="7.44" transform="translate(-75.14 156.71) rotate(-52.98)" style="fill:#fff;opacity:0.30000000000000004"></rect><rect x="121.22" y="155.13" width="10.44" height="7.44" transform="translate(-76.52 164.16) rotate(-52.98)" style="fill:#092C6A;opacity:0.4"></rect><rect x="121.22" y="155.13" width="10.44" height="7.44" transform="translate(-76.52 164.16) rotate(-52.98)" style="fill:#fff;opacity:0.30000000000000004"></rect><path d="M142.69,164.72h0a5.22,5.22,0,0,1-7.22-1.53L109.13,122.6l8.76-5.68,26.34,40.58A5.22,5.22,0,0,1,142.69,164.72Z" style="fill:#092C6A"></path><path d="M142.69,164.72h0a5.22,5.22,0,0,1-7.22-1.53L109.13,122.6l8.76-5.68,26.34,40.58A5.22,5.22,0,0,1,142.69,164.72Z" style="fill:#fff;opacity:0.7000000000000001"></path><rect x="111.81" y="121.47" width="10.44" height="7.44" transform="translate(-49.29 83.88) rotate(-32.98)" style="fill:#092C6A"></rect><rect x="116.44" y="128.6" width="10.44" height="7.44" transform="translate(-52.43 87.55) rotate(-32.98)" style="fill:#092C6A;opacity:0.8"></rect><rect x="121.07" y="135.74" width="10.44" height="7.44" transform="translate(-55.56 91.22) rotate(-32.98)" style="fill:#092C6A;opacity:0.6000000000000001"></rect><rect x="125.7" y="142.87" width="10.44" height="7.44" transform="translate(-58.7 94.89) rotate(-32.98)" style="fill:#092C6A;opacity:0.4"></rect><path d="M145.65,162.28h0a5.23,5.23,0,0,1-6.26-3.92l-10.86-47.14,10.17-2.35L149.57,156A5.23,5.23,0,0,1,145.65,162.28Z" style="fill:#092C6A"></path><path d="M145.65,162.28h0a5.23,5.23,0,0,1-6.26-3.92l-10.86-47.14,10.17-2.35L149.57,156A5.23,5.23,0,0,1,145.65,162.28Z" style="fill:#fff;opacity:0.6000000000000001"></path><rect x="129.85" y="112.63" width="10.44" height="7.44" transform="translate(-22.68 33.31) rotate(-12.98)" style="fill:#092C6A"></rect><rect x="129.85" y="112.63" width="10.44" height="7.44" transform="translate(-22.68 33.31) rotate(-12.98)" style="fill:#263238;opacity:0.4"></rect><rect x="131.76" y="120.92" width="10.44" height="7.44" transform="translate(-24.5 33.95) rotate(-12.98)" style="fill:#092C6A;opacity:0.8"></rect><rect x="131.76" y="120.92" width="10.44" height="7.44" transform="translate(-24.5 33.95) rotate(-12.98)" style="fill:#263238;opacity:0.4"></rect><rect x="133.67" y="129.21" width="10.44" height="7.44" transform="translate(-26.31 34.59) rotate(-12.98)" style="fill:#092C6A;opacity:0.6000000000000001"></rect><rect x="133.67" y="129.21" width="10.44" height="7.44" transform="translate(-26.31 34.59) rotate(-12.98)" style="fill:#263238;opacity:0.4"></rect><rect x="135.58" y="137.49" width="10.44" height="7.44" transform="translate(-28.12 35.23) rotate(-12.98)" style="fill:#092C6A;opacity:0.4"></rect><rect x="135.58" y="137.49" width="10.44" height="7.44" transform="translate(-28.12 35.23) rotate(-12.98)" style="fill:#263238;opacity:0.4"></rect><path d="M88.37,219.33l-4.48.49a1.56,1.56,0,0,0-1.38,1.71h0a1.56,1.56,0,0,0,1.71,1.37l4.49-.48a1.57,1.57,0,0,0,1.37-1.71h0A1.56,1.56,0,0,0,88.37,219.33Z" style="fill:#263238"></path><path d="M108,215.13,96.7,216.36a1.32,1.32,0,0,0-1.17,1.11L94.86,222l16.1-1.75-1.63-4.3A1.34,1.34,0,0,0,108,215.13Z" style="fill:#092C6A"></path><rect x="77" y="220.05" width="43.43" height="28.42" rx="4.83" transform="translate(-24.71 12.02) rotate(-6.2)" style="fill:#092C6A"></rect><rect x="81.01" y="227.53" width="6.94" height="16.55" transform="matrix(0.99, -0.11, 0.11, 0.99, -24.96, 10.5)" style="opacity:0.1"></rect><g style="opacity:0.8"><path d="M114,218.31,80.4,222a4.86,4.86,0,0,0-4.29,5.33l43.18-4.69A4.85,4.85,0,0,0,114,218.31Z" style="fill:#fff"></path><path d="M83.47,250.21,117,246.57a4.85,4.85,0,0,0,4.28-5.33l-43.17,4.69A4.85,4.85,0,0,0,83.47,250.21Z" style="fill:#fff"></path></g><path d="M115,232.49a10.5,10.5,0,1,1-11.57-9.31A10.49,10.49,0,0,1,115,232.49Z" style="fill:#263238"></path><path d="M114.08,232.59a9.55,9.55,0,1,1-10.52-8.46A9.55,9.55,0,0,1,114.08,232.59Z" style="fill:#fff;opacity:0.4"></path><path d="M111.37,232.89a6.82,6.82,0,1,1-7.52-6A6.83,6.83,0,0,1,111.37,232.89Z" style="fill:#263238"></path><path d="M108.28,230.73a1.51,1.51,0,1,1-1.66-1.34A1.5,1.5,0,0,1,108.28,230.73Z" style="fill:#fff"></path><path d="M110,228a1,1,0,1,1-1.06-.85A1,1,0,0,1,110,228Z" style="fill:#fff"></path></g></svg>